<?xml version="1.0" standalone="no"?>
<!DOCTYPE svg PUBLIC "-//W3C//DTD SVG 20010904//EN"
 "http://www.w3.org/TR/2001/REC-SVG-20010904/DTD/svg10.dtd">
<svg version="1.0" xmlns="http://www.w3.org/2000/svg"
 width="1024.000000pt" height="1024.000000pt" viewBox="0 0 1024.000000 1024.000000"
 preserveAspectRatio="xMidYMid meet">
<metadata>
Created by potrace 1.14, written by Peter Selinger 2001-2017
</metadata>
<g transform="translate(0.000000,1024.000000) scale(0.100000,-0.100000)"
fill="#000000" stroke="none">
<path d="M0 5120 l0 -5120 5120 0 5120 0 0 5120 0 5120 -5120 0 -5120 0 0
-5120z m5237 3170 c23 -10 64 -39 91 -64 180 -168 129 -444 -100 -552 l-38
-18 0 -264 c0 -145 -3 -262 -7 -260 -5 2 -40 27 -79 56 l-71 52 -7 92 c-3 50
-6 144 -6 208 l0 118 -55 26 c-69 34 -138 110 -165 184 -32 83 -25 197 15 270
47 86 117 144 203 169 59 16 162 9 219 -17z m-3406 -306 c14 -7 31 -20 38 -28
12 -14 112 -16 945 -16 l931 0 213 -216 c116 -120 212 -220 212 -224 0 -10
-64 -20 -130 -20 l-55 0 -155 155 -155 155 -836 0 c-460 0 -857 -3 -882 -6
-37 -5 -47 -11 -51 -30 -11 -40 -65 -93 -109 -105 -115 -31 -222 55 -221 176
1 28 8 64 17 82 20 39 70 81 105 89 15 3 32 7 37 9 16 4 68 -7 96 -21z m6749
-9 c57 -40 83 -95 78 -165 -5 -72 -37 -122 -94 -150 -50 -25 -87 -25 -140 -1
-44 20 -78 60 -90 104 l-6 28 -955 -3 -956 -3 -138 -145 -138 -145 -1 -837 0
-838 -84 0 -84 0 -7 267 c-4 146 -5 533 -3 860 l5 594 184 187 c101 103 191
192 199 199 12 10 242 12 1007 13 700 0 994 3 999 11 32 53 162 67 224 24z
m-5406 -286 c56 -14 109 -58 135 -112 40 -83 23 -167 -50 -238 -36 -35 -49
-55 -49 -76 0 -23 -13 -39 -70 -86 -38 -31 -72 -57 -75 -57 -3 0 -5 40 -5 89
0 84 -1 89 -23 95 -41 10 -96 76 -113 134 -33 113 27 216 146 253 36 11 56 10
104 -2z m5154 -118 c80 -41 115 -107 116 -221 0 -65 -3 -82 -29 -129 -22 -41
-41 -61 -74 -78 -109 -57 -261 -4 -295 105 l-7 22 -390 0 -389 0 0 -289 c0
-159 3 -303 6 -320 l7 -31 361 0 361 0 17 59 c23 77 96 159 170 191 79 35 186
38 263 9 75 -28 155 -102 192 -178 24 -48 28 -68 27 -141 0 -69 -5 -95 -25
-140 -32 -70 -98 -135 -169 -169 -47 -22 -68 -26 -150 -26 -106 1 -147 16
-219 80 -34 31 -91 128 -91 154 0 8 -112 10 -372 9 l-373 -3 0 -225 0 -225
520 -3 520 -2 20 36 c28 52 74 84 133 91 66 7 113 -10 156 -57 42 -46 54 -97
37 -158 -15 -55 -37 -86 -81 -110 -77 -43 -149 -35 -207 25 l-28 28 -529 -3
c-290 -1 -532 -5 -537 -8 -5 -3 -9 -14 -9 -25 0 -18 -8 -19 -174 -19 l-173 0
-6 298 c-3 163 -6 528 -6 810 l-1 512 180 0 c113 0 180 -4 180 -10 0 -6 134
-10 383 -10 l382 0 19 45 c42 104 185 157 284 106z m-6541 -136 c29 -12 97
-15 382 -15 l346 -1 200 -194 200 -195 -52 -52 -53 -52 -127 124 c-70 69 -147
146 -171 173 l-45 47 -303 0 c-268 0 -304 -2 -304 -15 0 -31 -29 -71 -68 -93
-107 -60 -222 10 -222 136 0 68 23 109 75 133 49 23 94 24 142 4z m4083 -805
l0 -810 -320 0 -320 0 0 100 0 100 130 0 130 0 0 710 0 710 190 0 190 0 0
-810z m932 568 c2 -235 2 -548 -1 -1110 l-1 -268 -105 0 -105 0 0 810 0 810
105 0 105 0 2 -242z m-2097 96 c177 -84 393 -233 534 -369 100 -95 215 -231
223 -262 5 -19 1 -23 -29 -29 -19 -4 -62 -4 -94 0 -52 5 -63 10 -95 46 -20 22
-40 40 -46 40 -5 0 -89 -82 -186 -182 l-178 -181 -49 35 c-58 41 -148 87 -222
113 -35 12 -53 25 -57 39 -8 29 -8 821 0 829 8 7 71 -17 199 -79z m-395 -333
l0 -410 -130 -3 -130 -3 0 223 0 222 -25 0 c-43 0 -173 -30 -269 -62 -132 -43
-278 -116 -379 -188 -105 -75 -276 -250 -345 -352 -126 -187 -220 -441 -247
-670 -7 -55 -9 -58 -39 -63 -17 -3 -93 -4 -168 -3 l-138 3 0 55 c0 75 25 222
59 355 80 305 233 559 485 803 336 324 752 497 1209 501 l117 1 0 -409z
m-2278 -79 c97 -42 166 -119 190 -207 l12 -45 133 0 133 0 0 -75 0 -74 -137
-3 -136 -3 -14 -42 c-8 -23 -35 -65 -59 -92 -143 -159 -413 -143 -528 31 -160
240 7 548 289 535 43 -2 88 -12 117 -25z m1908 -190 l0 -178 -57 -18 c-297
-93 -544 -361 -630 -682 -24 -89 -26 -117 -26 -269 0 -152 3 -180 26 -268 46
-174 131 -322 257 -447 114 -115 250 -205 383 -255 l47 -18 0 -159 0 -160 -45
7 c-25 3 -82 20 -127 36 -328 118 -577 344 -737 667 -159 320 -184 708 -67
1050 129 379 402 670 761 812 83 33 167 58 198 59 16 1 17 -14 17 -177z
m-2128 -574 c18 -14 42 -42 53 -62 l20 -36 216 0 217 0 -2 -65 c-1 -35 -5 -67
-8 -70 -3 -3 -107 -7 -231 -8 l-225 -2 -26 -28 c-101 -109 -276 -22 -276 138
0 60 26 106 80 143 48 32 132 28 182 -10z m2479 -258 c30 -6 77 -21 105 -35
50 -25 153 -120 183 -169 l15 -26 266 -2 265 -3 3 -255 2 -255 -142 -138 c-79
-75 -155 -147 -170 -158 l-28 -20 0 195 0 196 -157 0 c-156 0 -156 0 -202 -29
-106 -68 -262 -80 -371 -29 -192 89 -277 318 -191 513 28 64 113 150 179 181
84 40 158 50 243 34z m1197 -631 l2 -396 -180 -173 -180 -172 0 -149 0 -148
-83 -73 c-90 -78 -310 -239 -376 -274 -22 -12 -53 -31 -69 -43 -17 -11 -34
-21 -40 -21 -5 0 -15 -7 -22 -15 -7 -8 -16 -15 -21 -15 -5 0 -9 172 -9 389 l0
389 30 6 c57 11 181 68 258 118 108 71 170 123 310 261 l122 120 0 299 0 299
128 -3 127 -3 3 -396z m1772 26 l0 -375 141 0 141 0 81 -75 82 -75 162 0 161
0 21 34 c85 136 276 193 427 127 230 -102 259 -424 51 -567 -62 -43 -114 -58
-202 -58 -57 0 -81 5 -125 28 -104 52 -175 145 -187 247 l-6 49 -180 0 -181 0
-78 76 -77 76 -113 -7 c-62 -4 -114 -8 -115 -9 -1 -1 -3 -201 -4 -444 -1 -244
-4 -454 -7 -467 -3 -19 -11 -24 -50 -28 -26 -2 -57 -7 -69 -10 -13 -3 -23 -2
-23 4 0 5 -5 9 -11 9 -5 0 -7 -4 -4 -10 4 -6 -28 -10 -89 -10 l-96 0 -2 688
c-1 378 -1 712 0 743 3 63 -2 67 -68 65 l-35 -1 -5 -720 c-5 -675 -6 -723 -23
-749 -16 -23 -21 -25 -35 -14 -11 9 -14 10 -8 1 4 -7 2 -13 -3 -13 -6 0 -11 4
-11 9 0 5 -29 6 -65 3 l-65 -5 -2 744 -3 744 -349 3 c-273 2 -351 -1 -358 -10
-4 -7 -8 -299 -8 -648 0 -349 -3 -678 -7 -731 l-6 -96 -105 -7 c-58 -3 -138
-6 -179 -6 l-73 0 -2 348 c-1 191 -1 360 0 375 0 16 -3 27 -8 25 -5 -2 -63
-54 -130 -116 l-120 -113 0 78 0 79 175 174 175 175 0 410 c0 225 0 413 0 418
0 4 376 7 835 7 l835 0 0 -375z m-5452 219 c33 -14 90 -15 504 -9 l467 8 5
-34 c2 -19 10 -74 16 -122 29 -236 143 -495 303 -693 212 -262 486 -429 810
-494 153 -31 137 -52 137 183 l0 202 117 -3 c65 -2 124 -5 131 -7 9 -3 12 -75
12 -313 0 -170 -3 -337 -7 -372 l-6 -63 -191 6 c-125 3 -208 10 -241 20 -27 8
-70 20 -95 26 -442 111 -820 387 -1068 781 -117 186 -226 478 -248 663 l-7 57
-283 0 -284 0 0 -22 c0 -68 -94 -136 -169 -123 -57 9 -96 38 -120 87 -24 50
-26 80 -10 129 31 92 132 134 227 93z m6748 0 c101 -48 124 -170 47 -255 -62
-69 -151 -76 -218 -18 -19 17 -40 48 -46 70 l-12 39 -451 2 c-248 0 -461 0
-473 -1 -22 -2 -23 2 -23 74 l0 75 498 1 c391 0 504 3 532 14 48 19 105 18
146 -1z m-6516 -587 c57 -26 100 -62 146 -122 l26 -34 141 -3 142 -3 0 -65 0
-65 -131 -3 -131 -3 -6 -44 c-14 -96 -88 -199 -175 -244 -85 -43 -201 -46
-295 -6 -54 23 -124 91 -155 150 -34 67 -43 194 -18 259 37 96 122 177 216
203 66 19 174 10 240 -20z m4090 -627 c-1 -297 -4 -472 -11 -475 -14 -9 -101
-15 -126 -8 l-23 5 0 474 0 474 80 0 80 0 0 -470z m-3193 -145 l46 -45 -138
-132 c-75 -73 -145 -138 -155 -145 -14 -10 -82 -13 -263 -14 -214 -1 -273 -5
-267 -20 1 -2 -1 -11 -4 -19 -3 -8 -10 -33 -15 -55 -12 -47 -36 -83 -47 -72
-4 4 -8 22 -9 41 0 24 4 33 15 32 8 -1 15 6 15 14 0 11 -14 15 -55 17 -30 1
-58 2 -62 2 -5 1 -8 9 -9 19 0 11 -2 12 -6 4 -3 -7 1 -19 8 -28 8 -10 9 -18 2
-25 -7 -7 -14 -5 -23 6 -9 11 -9 15 -1 15 7 0 10 4 7 8 -9 16 -16 103 -7 97 5
-3 13 0 17 6 4 8 3 9 -4 5 -7 -4 -12 -1 -12 6 0 8 -5 6 -11 -5 -6 -9 -15 -15
-20 -12 -5 4 -7 10 -5 14 3 4 -18 4 -47 -1 -29 -5 -57 -10 -64 -10 -7 -1 -10
-5 -7 -10 3 -4 -1 -17 -9 -29 -8 -11 -12 -30 -9 -42 3 -12 1 -19 -3 -15 -4 4
-9 22 -11 39 -2 18 -11 40 -19 49 -9 10 -16 34 -17 54 -1 26 -4 33 -11 24 -6
-9 -7 -8 -3 5 3 10 6 23 6 28 0 6 5 7 11 3 6 -3 10 1 9 12 -4 36 0 43 43 69
88 51 206 29 297 -55 l43 -40 239 0 c154 -1 244 3 252 9 7 6 16 7 20 3 4 -4 6
-1 4 6 -3 12 208 228 226 231 4 0 28 -19 53 -44z m2243 -491 c-5 -71 -11 -135
-12 -141 -2 -19 -26 -16 -32 5 -3 9 -4 0 -3 -20 4 -48 -9 -39 -18 12 -7 41
-25 56 -25 20 0 -11 -4 -20 -10 -20 -5 0 -10 10 -10 21 0 16 -5 20 -20 16 -20
-5 -20 0 -20 202 l0 207 28 26 c15 14 50 41 77 61 l50 36 3 -148 c1 -81 -2
-206 -8 -277z m3237 387 c44 -21 84 -68 66 -79 -7 -5 -4 -26 9 -62 25 -73 30
-124 12 -109 -11 9 -12 6 -3 -21 9 -25 9 -34 -1 -40 -7 -4 -9 -13 -5 -20 6 -9
4 -11 -5 -5 -10 6 -12 3 -7 -14 3 -12 -1 -28 -10 -36 -18 -19 -34 -19 -27 -2
3 8 -2 19 -10 26 -8 7 -12 21 -9 32 5 16 8 18 15 7 7 -9 8 -5 4 12 -5 26 16
65 28 52 5 -4 0 10 -10 30 -20 42 -30 45 -15 4 6 -15 7 -26 1 -26 -5 0 -12 10
-16 22 -10 32 -30 49 -50 41 -10 -4 -15 -2 -11 4 4 6 -10 7 -40 3 -59 -9 -93
-45 -89 -92 2 -18 2 -26 -1 -17 -3 11 -15 15 -43 13 -32 -2 -38 1 -35 17 3 12
-1 16 -11 12 -8 -3 -14 -12 -14 -20 0 -10 -7 -14 -20 -10 -12 3 -27 -2 -37
-11 -15 -15 -16 -14 -11 16 4 28 1 33 -20 39 -13 3 -160 2 -327 -2 -167 -4
-312 -4 -323 -1 -17 6 -20 16 -21 76 l-1 70 373 0 373 0 22 29 c52 71 182 101
269 62z m-5225 -119 c31 -34 38 -49 38 -82 0 -72 -51 -142 -113 -154 -44 -9
-104 13 -137 51 -25 28 -30 43 -30 84 0 99 55 153 149 146 48 -3 58 -8 93 -45z
m-1448 -72 c5 -27 4 -30 -4 -15 -7 15 -8 7 -5 -30 l5 -50 -14 54 c-13 52 -11
100 4 84 4 -4 11 -24 14 -43z m28 -38 c3 -11 0 -19 -8 -19 -16 0 -16 0 -8 21
8 21 11 20 16 -2z m2 -48 c3 -8 2 -12 -4 -9 -6 3 -10 1 -10 -6 0 -7 -3 -10 -6
-6 -7 6 2 37 10 37 2 0 7 -7 10 -16z m1827 -24 c34 -12 36 -16 38 -59 1 -29
10 -58 25 -81 31 -45 38 -79 26 -120 -11 -37 -58 -92 -72 -84 -4 3 -8 0 -8 -5
0 -7 -23 -11 -55 -11 -46 0 -60 4 -81 25 -74 74 -61 187 25 228 21 10 27 20
29 57 3 58 9 73 25 67 6 -2 28 -10 48 -17z m-1797 -15 c3 -8 1 -15 -4 -15 -6
0 -10 7 -10 15 0 8 2 15 4 15 2 0 6 -7 10 -15z m186 -29 c0 -3 -4 -8 -10 -11
-5 -3 -10 -1 -10 4 0 6 5 11 10 11 6 0 10 -2 10 -4z m6311 -14 c-7 -2 -18 1
-23 6 -8 8 -4 9 13 5 13 -4 18 -8 10 -11z m-6418 -19 c-7 -2 -19 -2 -25 0 -7
3 -2 5 12 5 14 0 19 -2 13 -5z m6547 -3 c0 -5 -4 -10 -10 -10 -5 0 -10 5 -10
10 0 6 5 10 10 10 6 0 10 -4 10 -10z m-6 -29 c3 -5 0 -11 -7 -14 -8 -3 -14 1
-14 9 0 16 13 19 21 5z m-6354 -11 c0 -5 -2 -10 -4 -10 -3 0 -8 5 -11 10 -3 6
-1 10 4 10 6 0 11 -4 11 -10z m6307 -26 c-3 -3 -12 -4 -19 -1 -8 3 -5 6 6 6
11 1 17 -2 13 -5z m-3340 -116 c-3 -8 -6 -5 -6 6 -1 11 2 17 5 13 3 -3 4 -12
1 -19z m146 -20 c14 -23 15 -26 2 -22 -8 4 -15 10 -15 14 0 5 -3 17 -7 27 -8
22 -3 17 20 -19z m-3244 -284 c33 -14 68 -35 77 -45 17 -19 16 -21 -22 -60
-55 -57 -66 -61 -108 -44 -47 20 -139 19 -183 -2 -41 -19 -84 -79 -93 -131
-14 -83 26 -174 90 -207 19 -10 58 -15 115 -15 l86 0 -3 43 -3 42 -60 5 -60 5
-9 48 c-16 79 -11 82 145 82 l134 0 3 -154 c2 -102 -1 -158 -9 -167 -17 -20
-111 -53 -189 -65 -199 -31 -372 91 -410 289 -35 178 90 365 270 403 64 14
166 2 229 -27z m2109 -3 c95 -48 96 -54 29 -117 l-57 -53 -33 19 c-39 24 -134
27 -175 6 -60 -31 -102 -101 -102 -170 0 -56 14 -93 48 -129 43 -46 74 -57
160 -57 l79 0 -1 43 -1 42 -60 3 c-70 3 -85 17 -85 76 0 67 1 67 156 64 l139
-3 3 -162 2 -162 -38 -20 c-59 -30 -195 -55 -260 -47 -122 14 -235 96 -284
203 -32 69 -32 228 -1 295 25 54 90 129 141 160 90 56 240 60 340 9z m-1484 2
c16 -32 195 -452 237 -558 38 -95 31 -105 -66 -105 l-74 0 -28 59 -28 59 -107
4 c-155 6 -163 4 -183 -46 -27 -68 -39 -76 -115 -76 -100 0 -101 4 -40 157 47
116 145 346 205 481 l24 52 80 0 c78 0 81 -1 95 -27z m764 -12 c70 -38 120
-92 154 -167 19 -39 23 -67 23 -139 0 -82 -3 -97 -33 -157 -39 -79 -92 -129
-171 -160 -47 -18 -82 -22 -211 -26 -140 -4 -157 -2 -170 14 -22 25 -20 651 1
665 8 6 87 8 179 7 l165 -3 63 -34z m1418 31 c36 -23 40 -106 7 -133 -10 -9
-66 -13 -174 -15 -88 -1 -163 -4 -166 -7 -5 -6 -7 -46 -4 -79 1 -16 14 -18
130 -18 129 0 130 0 151 -27 26 -33 21 -79 -11 -105 -18 -15 -42 -18 -144 -18
-122 0 -123 0 -129 -25 -3 -13 -3 -42 0 -64 l6 -40 155 4 c164 5 182 1 209
-40 13 -20 14 -30 4 -60 -6 -19 -20 -40 -30 -45 -11 -6 -114 -10 -242 -10
-178 0 -228 3 -244 14 -18 14 -19 31 -22 329 -2 279 -1 317 13 331 14 14 48
16 248 16 128 0 237 -4 243 -8z m716 -9 c24 -22 24 -84 -1 -114 -18 -22 -28
-24 -125 -27 l-106 -4 0 -246 c0 -286 1 -282 -85 -282 -81 0 -80 -3 -81 264
-1 127 -2 238 -3 248 -1 13 -16 17 -97 20 -86 3 -98 5 -115 27 -19 23 -26 85
-11 107 12 20 39 22 326 23 247 1 282 -1 298 -16z m248 -2 c5 -11 10 -70 10
-131 l0 -111 118 3 117 3 3 120 c2 80 7 122 15 127 17 11 119 10 137 -2 13 -8
15 -55 14 -331 -1 -299 -3 -323 -20 -336 -23 -17 -120 -17 -131 0 -4 6 -10 68
-13 137 l-5 125 -115 0 -115 0 -3 -124 c-1 -71 -7 -130 -14 -138 -6 -8 -33
-13 -69 -13 -47 0 -60 4 -69 19 -6 13 -10 140 -10 345 l0 326 70 0 c58 0 71
-3 80 -19z m939 -8 c80 -176 260 -625 255 -637 -8 -21 -38 -28 -105 -24 l-54
3 -27 54 c-14 30 -35 58 -45 62 -15 6 -142 6 -238 0 -14 -1 -26 -15 -38 -45
-28 -68 -43 -77 -123 -74 l-69 3 1 31 c1 18 41 128 89 245 48 118 101 248 118
289 50 123 46 120 142 120 80 0 82 -1 94 -27z m349 14 c6 -7 41 -101 77 -208
37 -106 69 -201 72 -209 3 -8 36 75 72 185 37 110 73 210 80 223 11 21 18 23
84 20 l72 -3 -1 -40 c-1 -37 -179 -539 -219 -614 -15 -30 -17 -31 -88 -31 -87
0 -83 -5 -142 170 -24 69 -70 203 -104 299 -64 182 -69 206 -48 214 27 11 135
7 145 -6z m1031 -13 c24 -30 26 -52 10 -88 -17 -37 -58 -46 -215 -46 l-144 0
0 -50 0 -50 133 0 c72 0 137 -4 143 -8 22 -14 35 -53 29 -83 -11 -51 -35 -59
-178 -59 l-128 0 3 -62 3 -63 161 4 c154 3 162 3 183 -18 28 -28 29 -93 1
-121 -19 -19 -33 -20 -247 -20 -197 0 -229 2 -245 17 -17 15 -18 39 -18 333 0
232 3 319 12 328 9 9 77 12 244 12 l233 0 20 -26z m304 -41 c29 -38 93 -122
143 -188 l89 -120 5 178 c4 143 8 180 20 187 8 5 41 10 72 10 47 0 59 -4 68
-19 6 -12 10 -133 10 -323 0 -360 3 -348 -94 -348 l-62 0 -115 156 c-63 86
-123 169 -134 185 -11 16 -23 29 -27 29 -5 0 -8 -76 -8 -169 0 -199 -1 -201
-85 -201 -87 0 -85 -9 -85 361 0 245 3 318 13 322 6 3 40 6 74 6 l62 1 54 -67z"/>
<path d="M5053 8094 c-54 -27 -82 -90 -62 -141 35 -93 139 -109 204 -31 46 54
26 141 -39 172 -42 20 -62 20 -103 0z"/>
<path d="M1707 7862 c-32 -35 -16 -93 29 -106 30 -9 74 28 74 63 0 54 -68 82
-103 43z"/>
<path d="M8437 7862 c-34 -37 -8 -102 41 -102 33 0 45 8 61 37 31 59 -57 115
-102 65z"/>
<path d="M3055 7546 c-13 -13 -27 -35 -30 -49 -16 -63 66 -131 127 -106 39 16
58 46 58 92 0 78 -99 118 -155 63z"/>
<path d="M8202 7380 c-27 -26 -29 -80 -4 -103 9 -8 29 -19 44 -22 22 -6 33 -1
58 23 36 37 38 65 5 97 -30 31 -73 32 -103 5z"/>
<path d="M8290 6689 c-39 -16 -59 -39 -71 -81 -28 -107 76 -192 171 -140 75
40 89 129 32 193 -30 34 -89 46 -132 28z"/>
<path d="M8420 6018 c-35 -38 -20 -87 32 -107 37 -14 88 19 88 57 0 38 -33 72
-70 72 -17 0 -38 -9 -50 -22z"/>
<path d="M1694 7342 c-6 -4 -17 -17 -23 -30 -25 -47 46 -84 82 -44 23 25 21
48 -5 66 -25 18 -37 19 -54 8z"/>
<path d="M1844 6681 c-44 -27 -64 -59 -64 -104 0 -52 22 -91 64 -111 57 -27
107 -17 151 30 28 31 34 102 11 142 -32 58 -106 77 -162 43z"/>
<path d="M1677 6026 c-27 -28 -31 -56 -10 -85 26 -34 65 -39 92 -10 38 41 20
94 -36 105 -20 4 -35 1 -46 -10z"/>
<path d="M4150 5597 c-37 -18 -70 -74 -70 -117 0 -43 33 -98 70 -118 15 -7 45
-11 73 -9 38 3 55 11 82 37 40 38 48 74 32 132 -22 74 -114 112 -187 75z"/>
<path d="M8303 4709 c-17 -5 -43 -23 -57 -40 -49 -57 -25 -175 40 -199 111
-43 213 58 169 168 -25 63 -85 91 -152 71z"/>
<path d="M7048 3783 c6 -2 18 -2 25 0 6 3 1 5 -13 5 -14 0 -19 -2 -12 -5z"/>
<path d="M1684 5355 c-19 -29 -11 -60 21 -81 21 -14 26 -14 54 1 33 17 41 48
21 86 -16 29 -75 26 -96 -6z"/>
<path d="M8440 5370 c-25 -25 -26 -62 -2 -83 39 -35 102 -9 102 41 0 28 -34
62 -60 62 -11 0 -29 -9 -40 -20z"/>
<path d="M1840 4699 c-43 -27 -57 -45 -64 -85 -9 -48 14 -105 53 -131 86 -58
194 0 194 103 0 99 -103 163 -183 113z"/>
<path d="M1788 3979 c-20 -18 -25 -26 -13 -21 21 11 63 52 52 52 -4 0 -21 -14
-39 -31z"/>
<path d="M1785 3829 c-4 -6 -5 -12 -2 -15 2 -3 7 2 10 11 7 17 1 20 -8 4z"/>
<path d="M1976 3783 c-6 -14 -5 -15 5 -6 7 7 10 15 7 18 -3 3 -9 -2 -12 -12z"/>
<path d="M2102 3655 c-6 -14 -8 -25 -3 -25 4 0 13 11 19 25 6 14 8 25 3 25 -4
0 -13 -11 -19 -25z"/>
<path d="M8400 3996 c0 -2 8 -10 18 -17 15 -13 16 -12 3 4 -13 16 -21 21 -21
13z"/>
<path d="M8406 3952 c-3 -5 1 -9 9 -9 8 0 12 4 9 9 -3 4 -7 8 -9 8 -2 0 -6 -4
-9 -8z"/>
<path d="M7438 3893 c6 -2 18 -2 25 0 6 3 1 5 -13 5 -14 0 -19 -2 -12 -5z"/>
<path d="M8462 3705 c0 -16 2 -22 5 -12 2 9 2 23 0 30 -3 6 -5 -1 -5 -18z"/>
<path d="M8480 3720 c0 -5 5 -10 11 -10 5 0 7 5 4 10 -3 6 -8 10 -11 10 -2 0
-4 -4 -4 -10z"/>
<path d="M3040 3841 c-34 -65 28 -129 85 -87 11 8 18 26 18 46 0 20 -7 38 -18
46 -28 21 -72 17 -85 -5z"/>
<path d="M3523 3523 c-41 -28 -22 -103 26 -103 28 0 71 39 71 65 0 23 -37 55
-62 54 -7 0 -23 -7 -35 -16z"/>
<path d="M2432 2854 c-18 -47 -30 -90 -27 -95 4 -5 35 -9 71 -9 50 0 64 3 64
15 0 19 -63 175 -70 175 -3 0 -20 -39 -38 -86z"/>
<path d="M3070 2824 l0 -187 80 5 c71 4 85 8 118 35 48 38 71 86 72 146 1 114
-79 187 -205 187 l-65 0 0 -186z"/>
<path d="M6540 2927 c0 -7 -14 -45 -30 -85 -17 -40 -29 -76 -26 -81 8 -12 125
-11 132 1 8 12 -57 178 -68 178 -5 0 -8 -6 -8 -13z"/>
</g>
</svg>
